<svg xmlns="http://www.w3.org/2000/svg" viewBox="0 0 1200 630" width="1200" height="630">
  <defs>
    <linearGradient id="bg" x1="0" y1="0" x2="1200" y2="630" gradientUnits="userSpaceOnUse">
      <stop offset="0" stop-color="#0b0f17"/>
      <stop offset="1" stop-color="#151d2c"/>
    </linearGradient>
    <linearGradient id="accent" x1="0" y1="0" x2="1200" y2="0" gradientUnits="userSpaceOnUse">
      <stop stop-color="#7cc4ff"/>
      <stop offset="1" stop-color="#b794f4"/>
    </linearGradient>
    <pattern id="grid" x="0" y="0" width="64" height="64" patternUnits="userSpaceOnUse">
      <path d="M64 0 L0 0 0 64" fill="none" stroke="rgba(255,255,255,0.04)" stroke-width="1"/>
    </pattern>
  </defs>
  <rect width="1200" height="630" fill="url(#bg)"/>
  <rect width="1200" height="630" fill="url(#grid)"/>
  <g transform="translate(120 200)" stroke="url(#accent)" stroke-width="3" stroke-linecap="round" fill="none">
    <path d="M120 0 L220 40 L220 160 L120 220 L20 160 L20 40 Z"/>
    <path d="M120 0 L120 220 M20 40 L220 160 M220 40 L20 160"/>
    <circle cx="120" cy="0" r="10" fill="#7cc4ff" stroke="none"/>
    <circle cx="220" cy="40" r="10" fill="#7cc4ff" stroke="none"/>
    <circle cx="220" cy="160" r="10" fill="#b794f4" stroke="none"/>
    <circle cx="120" cy="220" r="10" fill="#b794f4" stroke="none"/>
    <circle cx="20" cy="160" r="10" fill="#b794f4" stroke="none"/>
    <circle cx="20" cy="40" r="10" fill="#7cc4ff" stroke="none"/>
    <circle cx="120" cy="110" r="12" fill="#e6edf7" stroke="none"/>
  </g>
  <g transform="translate(420 260)" fill="#e6edf7" font-family="ui-sans-serif, system-ui, -apple-system, Segoe UI, Roboto, sans-serif">
    <text x="0" y="0" font-size="84" font-weight="700" letter-spacing="-2">Awesome Lattice</text>
    <text x="0" y="80" font-size="32" fill="#9aa7bd">A directory of lattice-powered tools &amp; resources</text>
  </g>
</svg>
